<?xml version="1.0" standalone="no"?><!DOCTYPE svg PUBLIC "-//W3C//DTD SVG 1.1//EN" "http://www.w3.org/Graphics/SVG/1.1/DTD/svg11.dtd"><svg t="1683165282764" class="icon" viewBox="0 0 1024 1024" version="1.1" xmlns="http://www.w3.org/2000/svg" p-id="1384" xmlns:xlink="http://www.w3.org/1999/xlink" width="200" height="200"><path d="M897.40032 125.34528c-83.584-83.456-230.656-80.66048-385.94816-3.82208-155.264-76.83584-302.36672-79.63392-385.95072 3.82208C56.064 194.71616 46.36928 307.85024 89.0368 432.92672a95.13472 95.13472 0 0 0 12.93056 121.82528c-55.69536 136.12032-53.248 264.66304 23.58272 341.37856 83.56864 83.456 230.70208 80.6912 386.09408 3.75296 152.14592 75.264 300.7104 81.16992 385.75616-3.75296s79.06816-233.38496 3.6608-385.38496c75.40736-152.02304 81.408-300.45184-3.6608-385.408z m-45.056 725.80608c-96 95.86688-331.20256 29.23776-521.09824-160.42496a31.83104 31.83104 0 1 0-45.056 44.98688A908.71296 908.71296 0 0 0 442.88 861.2992c-116.736 47.6288-218.15552 43.87328-272.29184-10.18624-55.5264-55.46496-56.2816-157.46048-10.6112-270.24896 2.816 0.256 5.49376 0.8576 8.35328 0.8576a95.51616 95.51616 0 0 0 95.58272-95.45728 94.53824 94.53824 0 0 0-18.31168-55.77728 865.87392 865.87392 0 0 1 85.63968-99.71456 31.8336 31.8336 0 1 0-45.056-44.99456A928.22784 928.22784 0 0 0 193.11872 394.496a92.54144 92.54144 0 0 0-24.78848-3.69152 95.68512 95.68512 0 0 0-24.6272 3.584C115.12576 298.496 124.00896 216.8576 170.59584 170.3424c62.1056-62.016 186.46016-57.856 324.7104 14.1568a30.88384 30.88384 0 0 0 16.46592 3.0208 31.11936 31.11936 0 0 0 15.96928-3.072c138.21696-71.936 262.50752-76.11136 324.608-14.09536 55.75936 55.67488 56.30464 158.29248 10.00704 271.66208a874.61888 874.61888 0 0 0-67.29472-91.95776 78.49216 78.49216 0 0 0 10.52416-38.78656 80.576 80.576 0 1 0-61.33504 77.2224 792.39168 792.39168 0 0 1 85.02016 122.2272c-31.37536 56.34816-73.65632 113.42848-125.62432 167.39072a80.49408 80.49408 0 0 0-9.59232-0.94976 79.53152 79.53152 0 1 0 65.51296 34.42176 895.83872 895.83872 0 0 0 102.77888-132.11136c46.26688 113.33632 45.75232 215.98464-10.00704 271.66976zM518.8096 390.80448a127.2704 127.2704 0 1 0 127.45472 127.2704 127.35744 127.35744 0 0 0-127.45472-127.2704z m0 190.90944a63.6544 63.6544 0 1 1 63.75936-63.63904 63.744 63.744 0 0 1-63.75936 63.63904z m0 0" fill="#0079DE" p-id="1385"></path></svg>